<?xml version="1.0" encoding="utf-8"?>
<!-- Generator: Adobe Illustrator 22.0.1, SVG Export Plug-In . SVG Version: 6.00 Build 0)  -->
<svg id="Layer_1" style="enable-background:new 0 0 34.6 35.8;" version="1.1" viewBox="0 0 34.6 35.8" x="0px"
     xml:space="preserve" xmlns="http://www.w3.org/2000/svg" y="0px">
<style type="text/css">
	.st0 {
    fill: #FFFFFF;
  }

  .st1 {
    fill: #FF4800;
  }

  .st2 {
    fill: #20A7D1;
  }
</style>
  <path class="st0" d="M17.4,0c-0.1,0-0.3,0-0.4,0C7.8,0.2,0.3,7.6,0,16.8c-0.1,2.6,0.4,5.2,1.4,7.6l0,0c1.2,2.7,2,3.2,2.6,7
	c0.8,4.5,4.1,4.5,5.7,4.5c0.7,0,1.7,0,2.8-0.4c1.1-0.4,2.2-0.3,3.3,0.1c0.9,0.3,1.8,0.3,2.3,0.3c0.9,0,2.6,0,3.9-1.2
	c0.9-0.8,1.5-0.9,2.9-1.6c6-2.9,9.9-9,9.9-15.7C34.8,7.8,27,0,17.4,0z"/>
  <g>
	<g>
		<path class="st1" d="M17.1,2C9,2.2,2.3,8.8,2,16.9c-0.1,2.4,0.4,4.7,1.3,6.8c0.7,1.4,1.6,1,2.3,0.2c0.3-0.3,0.4-0.8,0.2-1.2
			c-0.3-0.6-0.5-1.4-0.5-2.2c0-2.7,2.4-4.9,5.1-4.6c1.8,0.2,3.3,1.4,3.8,3.1c0.4,0.9,0.7,0.8,1.3,0.3c0.9-0.7,2-1.1,3.3-1
			c1.9,0.2,3.4,1.8,3.6,3.7c0.1,0.8-0.1,1.5-0.4,2.2c-0.2,0.4-0.1,0.8,0.2,1.1l0.1,0.1c1,1.2,1.3,2.9,1.1,5.3
			c-0.1,0.5,0.5,0.9,0.9,0.6c5.2-2.5,8.8-7.8,8.8-14C32.9,8.8,25.8,1.8,17.1,2z"/>
	</g>
    <path class="st2"
          d="M9.8,34.1c1.7,0,3.5-0.1,3.8-2.9c1.2-6.9-2-7.1-3.8-7.1s-5,0.1-3.8,7.1C6.4,33.9,8,34.1,9.8,34.1z"/>
    <circle class="st2" cx="9.8" cy="20.5" r="2.9"/>
    <path class="st1" d="M20.6,22.5c0,1.4-1.1,2.4-2.4,2.4c-1.4,0-2.4-1.1-2.4-2.4c0-1.4,1.1-2.4,2.4-2.4
		C19.5,20.1,20.6,21.2,20.6,22.5z"/>
    <path class="st1"
          d="M18.1,34.1c1.5,0,3,0,3.2-2.4c1-5.9-1.7-6-3.2-6c-1.6,0-4.2,0.1-3.2,6C15.3,34,16.7,34.1,18.1,34.1z"/>
</g>
</svg>
